<svg xmlns="http://www.w3.org/2000/svg" xmlns:xlink="http://www.w3.org/1999/xlink" width="500" zoomAndPan="magnify" viewBox="0 0 375 225" height="300" preserveAspectRatio="xMidYMid meet" version="1.0"><defs><g/><clipPath id="id1"><path d="M 9.347656 68 L 91.847656 68 L 91.847656 157.632812 L 9.347656 157.632812 Z M 9.347656 68 " clip-rule="nonzero"/></clipPath></defs><g clip-path="url(#id1)"><path fill="#1f2f3e" d="M 54.003906 118.207031 C 54.9375 118.332031 56.761719 118.148438 59.480469 117.652344 C 61.914062 117.195312 63.890625 116.972656 65.410156 116.992188 C 66.925781 117.011719 68.359375 117.402344 69.710938 118.171875 C 71.066406 118.945312 72.15625 120.113281 72.976562 121.664062 C 74.0625 123.695312 74.382812 125.878906 73.941406 128.207031 C 73.746094 129.242188 73.335938 130.234375 72.707031 131.179688 C 72.136719 132.046875 71.378906 132.875 70.441406 133.667969 C 70.355469 133.742188 70.269531 133.808594 70.183594 133.882812 L 72.195312 137.660156 L 66.648438 140.648438 L 64.644531 136.886719 C 64.507812 136.929688 64.371094 136.976562 64.234375 137.015625 C 60.3125 138.183594 56.851562 137.308594 53.847656 134.375 L 57.917969 129.71875 L 58.015625 129.601562 C 59.132812 130.582031 60.21875 131.214844 61.269531 131.507812 C 62.449219 131.648438 63.722656 131.355469 65.082031 130.621094 C 65.703125 130.285156 66.226562 129.925781 66.636719 129.542969 L 66.640625 129.542969 C 67.171875 129.050781 67.535156 128.519531 67.71875 127.953125 C 68.042969 126.941406 67.960938 125.980469 67.472656 125.066406 C 66.96875 124.113281 66.246094 123.574219 65.320312 123.445312 C 64.382812 123.316406 62.554688 123.503906 59.839844 123.996094 C 57.40625 124.457031 55.429688 124.679688 53.910156 124.65625 C 52.398438 124.644531 50.960938 124.25 49.609375 123.480469 C 48.257812 122.707031 47.167969 121.539062 46.339844 119.988281 C 45.257812 117.957031 44.9375 115.773438 45.378906 113.445312 C 45.574219 112.410156 45.984375 111.417969 46.613281 110.472656 C 47.1875 109.605469 47.945312 108.773438 48.882812 107.984375 C 48.964844 107.910156 49.050781 107.84375 49.140625 107.769531 L 47.128906 103.992188 L 52.675781 101.003906 L 54.675781 104.765625 C 54.8125 104.722656 54.949219 104.675781 55.085938 104.636719 C 59.011719 103.46875 62.472656 104.34375 65.472656 107.277344 L 61.40625 111.933594 L 61.308594 112.046875 C 60.1875 111.074219 59.105469 110.4375 58.054688 110.144531 C 56.871094 110 55.597656 110.300781 54.238281 111.03125 C 53.617188 111.367188 53.09375 111.726562 52.679688 112.109375 C 52.148438 112.601562 51.789062 113.132812 51.601562 113.699219 C 51.28125 114.710938 51.359375 115.671875 51.847656 116.589844 C 52.351562 117.539062 53.074219 118.078125 54.003906 118.207031 Z M 37.496094 82.90625 L 38.984375 85.699219 C 39.425781 86.53125 40.457031 86.84375 41.285156 86.398438 C 42.113281 85.953125 42.425781 84.917969 41.980469 84.085938 L 40.480469 81.273438 C 43.15625 80.660156 46.007812 81.886719 47.363281 84.433594 C 48.992188 87.488281 47.847656 91.296875 44.808594 92.933594 C 41.765625 94.570312 37.980469 93.417969 36.355469 90.359375 C 35.011719 87.839844 35.554688 84.804688 37.496094 82.90625 Z M 26.121094 72.308594 C 23.160156 74.121094 21.574219 76.929688 20.121094 79.84375 C 19.039062 82.015625 18.136719 84.289062 16.582031 86.195312 C 16.234375 86.617188 15.832031 86.976562 15.363281 87.253906 C 14.765625 87.613281 14.179688 87.527344 13.648438 87.144531 C 13.136719 86.777344 12.960938 86.230469 13.019531 85.605469 C 13.207031 83.511719 14.238281 81.765625 15.292969 80.035156 C 16.738281 77.675781 18.46875 75.558594 20.71875 73.925781 C 22.296875 72.78125 24.03125 72.007812 26.023438 71.964844 C 26.023438 71.964844 26.023438 71.964844 26.027344 71.964844 C 26.210938 71.960938 26.28125 72.210938 26.121094 72.308594 Z M 60.425781 86.472656 L 46.824219 77.953125 C 44.246094 76.070312 40.945312 75.589844 37.984375 76.582031 L 36.785156 74.324219 C 36.683594 74.136719 36.570312 73.957031 36.449219 73.789062 C 33.539062 69.707031 27.992188 67.617188 23.152344 68.972656 C 17.867188 70.453125 14.222656 75.261719 11.550781 80.078125 C 10.71875 81.578125 9.933594 83.144531 9.691406 84.839844 C 9.449219 86.535156 9.835938 88.40625 11.070312 89.589844 C 12.761719 91.207031 15.597656 91.0625 17.570312 89.800781 C 19.542969 88.546875 20.808594 86.433594 21.792969 84.300781 C 22.78125 82.175781 23.585938 79.929688 24.957031 78.027344 C 26.328125 76.128906 28.429688 74.570312 30.765625 74.582031 C 30.796875 74.582031 30.828125 74.585938 30.863281 74.585938 C 32.257812 74.625 33.519531 75.4375 34.179688 76.675781 L 34.992188 78.203125 C 32.566406 80.136719 31.164062 83.140625 31.289062 86.320312 L 30.800781 102.425781 C 31.027344 108.09375 32.527344 113.636719 35.1875 118.636719 L 54.519531 154.941406 C 55.558594 156.890625 57.972656 157.625 59.914062 156.582031 L 89.117188 140.855469 C 91.054688 139.8125 91.785156 137.386719 90.746094 135.433594 L 71.414062 99.132812 C 68.75 94.128906 64.992188 89.804688 60.425781 86.472656 " fill-opacity="1" fill-rule="nonzero"/></g><g fill="#414b3b" fill-opacity="1"><g transform="translate(107.991401, 132.504024)"><g><path d="M 20.785156 -40.71875 C 9.21875 -40.71875 0 -31.496094 0 -20.039062 C 0 -8.472656 9.21875 0.746094 20.785156 0.746094 C 30.164062 0.746094 38.480469 -5.703125 40.824219 -14.816406 L 40.238281 -14.816406 C 37.464844 -7.195312 30.589844 -1.597656 22.332031 -1.8125 C 13.910156 -2.078125 6.394531 -9.59375 6.394531 -20.039062 C 6.394531 -31.125 14.441406 -38.746094 23.078125 -38.265625 C 30.910156 -37.839844 36.613281 -31.921875 38.585938 -25.101562 L 39.277344 -25.101562 L 39.277344 -34.269531 C 37.734375 -34.214844 35.546875 -35.707031 34.269531 -36.667969 C 29.953125 -39.597656 25.847656 -40.71875 20.785156 -40.71875 Z M 20.785156 -40.71875 "/></g></g></g><g fill="#414b3b" fill-opacity="1"><g transform="translate(153.237198, 132.504024)"><g><path d="M 23.769531 -6.503906 C 23.769531 -9.328125 23.769531 -15.347656 23.769531 -18.917969 C 23.769531 -25.367188 18.8125 -26.113281 13.589844 -26.113281 C 8.847656 -26.113281 3.515625 -25.367188 0 -24.570312 L 3.675781 -19.453125 C 6.714844 -21.957031 10.660156 -24.195312 14.710938 -24.25 C 20.410156 -24.355469 19.664062 -17.269531 14.390625 -15.933594 C 12.417969 -15.457031 10.285156 -15.882812 8.207031 -15.933594 C 3.359375 -16.042969 0 -12.949219 0 -7.996094 C 0 -2.769531 3.730469 0 7.941406 0 C 12.363281 0 17.214844 -3.089844 18.652344 -9.378906 L 18.652344 -7.035156 C 18.652344 -4.421875 18.707031 -2.292969 19.613281 0 L 24.730469 0 C 23.984375 -2.023438 23.769531 -3.835938 23.769531 -6.503906 Z M 9.914062 -2.824219 C 3.996094 -2.664062 2.824219 -12.523438 10.765625 -13.644531 C 13.535156 -14.015625 17.269531 -14.125 18.652344 -16.839844 C 18.171875 -12.042969 16.203125 -2.984375 9.914062 -2.824219 Z M 9.914062 -2.824219 "/></g></g></g><g fill="#414b3b" fill-opacity="1"><g transform="translate(182.441794, 132.504024)"><g><path d="M 0 -26.113281 C 0.746094 -24.144531 0.960938 -22.332031 0.960938 -19.613281 L 0.960938 -6.503906 C 0.960938 -3.835938 0.746094 -2.023438 0 0 C 2.34375 0 4.691406 0 7.035156 0 C 6.234375 -2.023438 6.074219 -3.835938 6.074219 -6.503906 L 6.074219 -19.238281 C 6.074219 -19.347656 6.074219 -19.507812 6.074219 -19.664062 C 7.78125 -20.625 10.285156 -21.902344 12.523438 -22.652344 C 16.46875 -23.929688 19.613281 -23.503906 19.613281 -18.386719 L 19.613281 -6.503906 C 19.613281 -3.835938 19.398438 -2.023438 18.652344 0 C 21 0 23.34375 0 25.6875 0 C 24.941406 -2.023438 24.730469 -3.835938 24.730469 -6.503906 C 24.730469 -10.339844 24.730469 -15.402344 24.730469 -19.453125 C 24.730469 -23.875 22.332031 -26.113281 17.960938 -26.113281 C 13.75 -26.113281 9.378906 -23.714844 6.023438 -21.636719 C 5.96875 -23.183594 5.703125 -24.621094 5.117188 -26.113281 Z M 0 -26.113281 "/></g></g></g><g fill="#414b3b" fill-opacity="1"><g transform="translate(212.605653, 132.504024)"><g><path d="M 0 -26.113281 L 0 -24.25 L 3.199219 -24.25 L 3.199219 -6.929688 C 3.199219 -1.867188 5.167969 0 7.726562 0 C 10.074219 0 12.738281 -1.546875 15.242188 -3.890625 L 14.230469 -5.222656 C 11.886719 -2.613281 8.3125 -1.492188 8.3125 -6.503906 L 8.3125 -24.25 L 14.230469 -24.25 L 14.230469 -26.113281 L 8.3125 -26.113281 L 8.3125 -33.042969 L 6.503906 -33.042969 C 5.96875 -29.578125 3.25 -26.113281 0 -26.113281 Z M 0 -26.113281 "/></g></g></g><g fill="#414b3b" fill-opacity="1"><g transform="translate(232.377373, 132.504024)"><g><path d="M 11.085938 -4.316406 C 9.007812 -5.648438 10.820312 -7.566406 14.230469 -8.421875 C 15.988281 -8.898438 18.015625 -9.167969 19.773438 -9.753906 C 25.476562 -11.671875 26.222656 -17.855469 22.597656 -22.011719 C 20.359375 -24.570312 16.789062 -26.113281 13.058594 -26.113281 C 5.863281 -26.113281 0 -20.253906 0 -13.058594 C 0 -5.863281 5.863281 0 13.058594 0 C 18.171875 0 22.652344 -2.929688 24.78125 -7.25 L 23.769531 -8.632812 C 21.746094 -3.945312 15.617188 -1.4375 11.085938 -4.316406 Z M 8.207031 -6.449219 C 7.460938 -7.195312 6.820312 -8.046875 6.234375 -9.058594 C 3.089844 -14.390625 3.570312 -20.519531 7.355469 -22.703125 C 8.742188 -23.503906 10.285156 -23.664062 11.777344 -23.449219 C 15.082031 -22.863281 18.492188 -20.253906 19.453125 -17 C 20.09375 -14.816406 19.507812 -12.578125 17 -11.511719 C 14.015625 -10.285156 9.804688 -9.699219 8.207031 -6.449219 Z M 8.207031 -6.449219 "/></g></g></g><g fill="#414b3b" fill-opacity="1"><g transform="translate(261.795141, 132.504024)"><g><path d="M 11.085938 -4.316406 C 9.007812 -5.648438 10.820312 -7.566406 14.230469 -8.421875 C 15.988281 -8.898438 18.015625 -9.167969 19.773438 -9.753906 C 25.476562 -11.671875 26.222656 -17.855469 22.597656 -22.011719 C 20.359375 -24.570312 16.789062 -26.113281 13.058594 -26.113281 C 5.863281 -26.113281 0 -20.253906 0 -13.058594 C 0 -5.863281 5.863281 0 13.058594 0 C 18.171875 0 22.652344 -2.929688 24.78125 -7.25 L 23.769531 -8.632812 C 21.746094 -3.945312 15.617188 -1.4375 11.085938 -4.316406 Z M 8.207031 -6.449219 C 7.460938 -7.195312 6.820312 -8.046875 6.234375 -9.058594 C 3.089844 -14.390625 3.570312 -20.519531 7.355469 -22.703125 C 8.742188 -23.503906 10.285156 -23.664062 11.777344 -23.449219 C 15.082031 -22.863281 18.492188 -20.253906 19.453125 -17 C 20.09375 -14.816406 19.507812 -12.578125 17 -11.511719 C 14.015625 -10.285156 9.804688 -9.699219 8.207031 -6.449219 Z M 8.207031 -6.449219 "/></g></g></g><g fill="#414b3b" fill-opacity="1"><g transform="translate(291.21291, 132.504024)"><g><path d="M 0 -26.113281 C 0.746094 -24.144531 0.960938 -22.332031 0.960938 -19.613281 L 0.960938 -6.503906 C 0.960938 -3.835938 0.746094 -2.023438 0 0 C 2.34375 0 4.691406 0 7.035156 0 C 6.234375 -2.023438 6.074219 -3.835938 6.074219 -6.503906 L 6.074219 -19.238281 C 6.074219 -19.347656 6.074219 -19.507812 6.074219 -19.664062 C 7.78125 -20.625 10.285156 -21.902344 12.523438 -22.652344 C 16.46875 -23.929688 19.613281 -23.503906 19.613281 -18.386719 L 19.613281 -6.503906 C 19.613281 -3.835938 19.398438 -2.023438 18.652344 0 C 21 0 23.34375 0 25.6875 0 C 24.941406 -2.023438 24.730469 -3.835938 24.730469 -6.503906 C 24.730469 -10.339844 24.730469 -15.402344 24.730469 -19.453125 C 24.730469 -23.875 22.332031 -26.113281 17.960938 -26.113281 C 13.75 -26.113281 9.378906 -23.714844 6.023438 -21.636719 C 5.96875 -23.183594 5.703125 -24.621094 5.117188 -26.113281 Z M 0 -26.113281 "/></g></g></g><g fill="#414b3b" fill-opacity="1"><g transform="translate(321.376769, 132.504024)"><g><path d="M 23.769531 -6.503906 C 23.769531 -9.328125 23.769531 -15.347656 23.769531 -18.917969 C 23.769531 -25.367188 18.8125 -26.113281 13.589844 -26.113281 C 8.847656 -26.113281 3.515625 -25.367188 0 -24.570312 L 3.675781 -19.453125 C 6.714844 -21.957031 10.660156 -24.195312 14.710938 -24.25 C 20.410156 -24.355469 19.664062 -17.269531 14.390625 -15.933594 C 12.417969 -15.457031 10.285156 -15.882812 8.207031 -15.933594 C 3.359375 -16.042969 0 -12.949219 0 -7.996094 C 0 -2.769531 3.730469 0 7.941406 0 C 12.363281 0 17.214844 -3.089844 18.652344 -9.378906 L 18.652344 -7.035156 C 18.652344 -4.421875 18.707031 -2.292969 19.613281 0 L 24.730469 0 C 23.984375 -2.023438 23.769531 -3.835938 23.769531 -6.503906 Z M 9.914062 -2.824219 C 3.996094 -2.664062 2.824219 -12.523438 10.765625 -13.644531 C 13.535156 -14.015625 17.269531 -14.125 18.652344 -16.839844 C 18.171875 -12.042969 16.203125 -2.984375 9.914062 -2.824219 Z M 9.914062 -2.824219 "/></g></g></g></svg>