<svg xmlns="http://www.w3.org/2000/svg" version="1.1" xmlns:xlink="http://www.w3.org/1999/xlink" xmlns:svgjs="http://svgjs.com/svgjs" width="1920" height="929" preserveAspectRatio="none" viewBox="0 0 1920 929">
    <g mask="url(&quot;#SvgjsMask1058&quot;)" fill="none">
        <rect width="1920" height="929" x="0" y="0" fill="rgba(249, 248, 244, 1)"></rect>
        <path d="M-16.583699953717137 282.53133092046437L252.6198278330462 210.39846305039185-88.71656782378963 13.327803133701025z" fill="rgba(28, 83, 142, 0.4)" class="triangle-float2"></path>
        <path d="M51.345,134.886C86.73,134.716,128.352,136.664,146.099,106.051C163.874,75.391,141.784,40.053,124.145,9.314C106.384,-21.638,87.03,-59.311,51.345,-59.078C15.848,-58.846,-2.012,-20.45,-19.827,10.254C-37.745,41.136,-62.703,75.963,-44.998,106.968C-27.227,138.087,15.509,135.058,51.345,134.886" fill="rgba(28, 83, 142, 0.4)" class="triangle-float2"></path>
        <path d="M210.40813698491036-25.42555358511717L39.37833521344692-98.02339725842421 15.99647058921812 194.82022723542445z" fill="rgba(28, 83, 142, 0.4)" class="triangle-float1"></path>
        <path d="M1976.4354076440195-67.24261845622723L1697.9051841537976-57.51612872524018 1986.1618973750064 211.28760503399477z" fill="rgba(28, 83, 142, 0.4)" class="triangle-float3"></path>
        <path d="M1897.3928623763397-45.05751016183228L1632.9081999370958 132.97314575312606 1881.231718228394 259.50029803053775z" fill="rgba(28, 83, 142, 0.4)" class="triangle-float2"></path>
        <path d="M1776.467,145.47C1809.787,144.345,1830.244,111.672,1844.395,81.485C1856.153,56.404,1855.581,28.545,1842.8,3.97C1828.794,-22.962,1806.811,-48.29,1776.467,-49.128C1745.018,-49.997,1718.913,-27.287,1703.465,0.12C1688.325,26.98,1686.263,58.804,1700.101,86.357C1715.586,117.189,1741.985,146.634,1776.467,145.47" fill="rgba(28, 83, 142, 0.4)" class="triangle-float1"></path>
        <path d="M27.367,846.732C55.188,845.841,81.785,834.118,96.254,810.339C111.308,785.598,112.697,754.733,98.813,729.317C84.344,702.828,57.547,684.654,27.367,684.228C-3.529,683.792,-31.991,700.619,-47.664,727.248C-63.572,754.275,-66.287,788.449,-49.609,815.008C-33.791,840.198,-2.363,847.684,27.367,846.732" fill="rgba(28, 83, 142, 0.4)" class="triangle-float2"></path>
        <path d="M-123.89 743.23 a123.92 123.92 0 1 0 247.84 0 a123.92 123.92 0 1 0 -247.84 0z" fill="rgba(28, 83, 142, 0.4)" class="triangle-float3"></path>
        <path d="M-159.18 778.52 a194.5 194.5 0 1 0 389 0 a194.5 194.5 0 1 0 -389 0z" fill="rgba(28, 83, 142, 0.4)" class="triangle-float3"></path>
        <path d="M1888.922,1087.951C1959.843,1087.547,2031.813,1062.314,2067.349,1000.937C2102.949,939.45,2094.546,860.981,2054.191,802.505C2018.505,750.793,1951.743,743.427,1888.922,742.385C1823.435,741.299,1751.377,743.162,1713.879,796.861C1671.693,857.273,1668.972,939.842,1706.944,1002.988C1743.921,1064.478,1817.171,1088.359,1888.922,1087.951" fill="rgba(28, 83, 142, 0.4)" class="triangle-float2"></path>
        <path d="M1639.25 714.28 a66.03 66.03 0 1 0 132.06 0 a66.03 66.03 0 1 0 -132.06 0z" fill="rgba(28, 83, 142, 0.4)" class="triangle-float2"></path>
        <path d="M1935.412,1154.089C2009.378,1149.485,2073.882,1109.884,2113.045,1046.968C2154.906,979.717,2177.556,896.066,2139.148,826.785C2099.816,755.838,2016.532,726.613,1935.412,726.552C1854.169,726.49,1774.883,758.014,1731.14,826.476C1683.855,900.482,1668.383,997.23,1714.849,1071.753C1759.351,1143.127,1851.463,1159.314,1935.412,1154.089" fill="rgba(28, 83, 142, 0.4)" class="triangle-float1"></path>
    </g>
    <defs>
        <mask id="SvgjsMask1058">
            <rect width="1920" height="929" fill="#ffffff"></rect>
        </mask>
        <style>
            @keyframes float1 {
                0%{transform: translate(0, 0)}
                50%{transform: translate(-10px, 0)}
                100%{transform: translate(0, 0)}
            }

            .triangle-float1 {
                animation: float1 5s infinite;
            }

            @keyframes float2 {
                0%{transform: translate(0, 0)}
                50%{transform: translate(-5px, -5px)}
                100%{transform: translate(0, 0)}
            }

            .triangle-float2 {
                animation: float2 4s infinite;
            }

            @keyframes float3 {
                0%{transform: translate(0, 0)}
                50%{transform: translate(0, -10px)}
                100%{transform: translate(0, 0)}
            }

            .triangle-float3 {
                animation: float3 6s infinite;
            }
        </style>
    </defs>
</svg>