<svg xmlns="http://www.w3.org/2000/svg" version="1.1" xmlns:xlink="http://www.w3.org/1999/xlink" xmlns:svgjs="http://svgjs.com/svgjs" width="1920" height="929" preserveAspectRatio="none" viewBox="0 0 1920 929">
    <g mask="url(&quot;#SvgjsMask1013&quot;)" fill="none">
        <rect width="1920" height="929" x="0" y="0" fill="rgba(246, 246, 242, 1)"></rect>
        <path d="M0,575.316C123.058,591.565,249.878,614.588,364.754,567.569C490.522,516.092,622.875,432.809,664.35,303.398C705.515,174.953,624.508,42.289,573.06,-82.394C532.135,-181.575,471.274,-266.559,397.157,-344.138C326.228,-418.38,251.179,-491.049,153.226,-521.839C54.241,-552.954,-48.979,-531.265,-151.707,-516.668C-271.264,-499.68,-407.913,-512.428,-495.802,-429.615C-584.948,-345.618,-607.497,-209.811,-607.369,-87.326C-607.251,25.946,-548.114,126.003,-495.118,226.113C-445.042,320.707,-395.155,417.086,-307.69,478.775C-218.031,542.01,-108.771,560.953,0,575.316" fill="#dedecf"></path>
        <path d="M1920 1408.742C2026.69 1427.439 2141.581 1473.167 2238.008 1423.829 2335.5 1373.945 2365.8 1252.877 2415.421 1155.251 2467.2709999999997 1053.239 2548.7870000000003 954.187 2534.419 840.66 2520.007 726.792 2437.0299999999997 626.8330000000001 2340.654 564.502 2253.82 508.342 2136.589 557.3679999999999 2039.858 520.8009999999999 1930.371 479.412 1864.136 340.528 1747.088 340.11699999999996 1628.134 339.69899999999996 1515.156 421.569 1446.51 518.7180000000001 1379.9569999999999 612.905 1401.578 737.948 1385.3020000000001 852.122 1369.05 966.13 1292.017 1089.941 1350.981 1188.862 1410.729 1289.098 1557.5230000000001 1281.594 1666.371 1323.655 1751.27 1356.462 1830.349 1393.031 1920 1408.742" fill="#ffffff"></path>
    </g>
    <defs>
        <mask id="SvgjsMask1013">
            <rect width="1920" height="929" fill="#ffffff"></rect>
        </mask>
    </defs>
</svg>